<svg width="25" height="17" viewBox="0 0 25 17" fill="none" xmlns="http://www.w3.org/2000/svg">
<path d="M10.596 6.20395C10.596 9.81179 8.55677 14.0471 5.8901 16.4L5.10579 15.6157C5.8901 14.5177 6.67441 13.2628 6.67441 11.851C6.67441 11.0667 6.36069 10.5961 5.73324 10.4392L3.69402 9.65493C2.28226 9.02748 0.399902 8.0863 0.399902 5.41963C0.399902 2.75297 2.59598 0.400024 5.26265 0.400024C8.87049 0.400024 10.596 2.90983 10.596 6.20395ZM24.3999 6.20395C24.3999 10.4392 22.8313 13.7334 19.694 16.4L18.9097 15.6157C19.694 14.5177 20.4783 13.2628 20.4783 11.851C20.4783 11.2236 20.1646 10.753 19.5372 10.5961L17.4979 9.81179C16.0862 9.18434 14.2038 8.40002 14.2038 5.41963C14.2038 2.75297 16.3999 0.400024 19.0666 0.400024C22.6744 0.400024 24.3999 2.90983 24.3999 6.20395Z" fill="white"/>
</svg>
