<svg width="25" height="17" viewBox="0 0 25 17" fill="none" xmlns="http://www.w3.org/2000/svg">
<path d="M18.1254 11.851C18.1254 13.2628 18.9097 14.5177 19.694 15.6157L18.9097 16.4C16.243 14.0471 14.2038 9.81179 14.2038 6.20395C14.2038 2.90983 15.9293 0.400024 19.5372 0.400024C22.2038 0.400024 24.3999 2.75297 24.3999 5.41963C24.3999 11.0667 18.1254 9.02748 18.1254 11.851ZM4.32147 11.851C4.32147 13.2628 5.10578 14.5177 5.8901 15.6157L5.10579 16.4C1.96853 13.7334 0.399902 10.4392 0.399902 6.20395C0.399902 2.90983 2.12539 0.400024 5.73324 0.400024C8.3999 0.400024 10.596 2.75297 10.596 5.41963C10.596 11.3804 4.32147 9.34121 4.32147 11.851Z" fill="white"/>
</svg>
