<svg width="186" height="106" viewBox="0 0 186 106" fill="none" xmlns="http://www.w3.org/2000/svg">
<path d="M165.956 51.8444C165.022 52.9974 164.102 54.1473 163.197 55.294C162.264 56.477 161.458 57.7508 160.793 59.095C159.791 57.996 158.724 56.9559 157.597 55.9802C156.5 55.0337 155.312 54.1108 154.034 53.2115C156.08 51.039 157.845 48.6298 159.291 46.0382C160.226 47.1746 161.269 48.2207 162.408 49.1621C163.496 50.0568 164.679 50.9509 165.956 51.8444Z" fill="black"/>
<path d="M45.696 21.424V28.816C43.648 27.92 41.504 27.152 39.264 26.512C37.024 25.872 34.688 25.36 32.256 24.976C31.872 29.52 31.552 34.192 31.296 38.992C31.04 43.728 30.88 48.496 30.816 53.296C30.816 58.096 30.944 62.896 31.2 67.696C31.456 72.496 31.904 77.264 32.544 82H14.976C16.128 74.128 16.864 65.488 17.184 56.08C17.568 46.672 17.056 36.272 15.648 24.88C13.088 25.2 10.624 25.712 8.256 26.416C5.888 27.12 3.616 27.92 1.44 28.816V21.424H45.696ZM41.5882 82C42.1002 76.816 42.5162 71.632 42.8362 66.448C43.2202 61.2 43.4442 56.016 43.5082 50.896C43.6363 45.776 43.5723 40.752 43.3162 35.824C43.0602 30.896 42.5802 26.096 41.8762 21.424H58.1963C57.8123 26.16 57.4923 31.12 57.2362 36.304C57.0443 40.72 56.9163 45.136 56.8523 49.552H74.9963C75.2523 39.76 74.7403 30.384 73.4602 21.424H89.3963C89.0123 26.16 88.6923 31.12 88.4363 36.304C88.2443 41.488 88.1163 46.704 88.0523 51.952C88.0523 57.136 88.1483 62.288 88.3403 67.408C88.5323 72.528 88.8843 77.392 89.3963 82H73.0763C73.9723 72.208 74.5803 62.544 74.9003 53.008H56.7563C56.7563 57.872 56.8843 62.672 57.1403 67.408C57.3963 72.528 57.7483 77.392 58.1963 82H41.5882ZM120.691 21.424C123.572 31.472 126.996 41.616 130.964 51.856C134.932 62.096 139.188 72.144 143.732 82H124.244C123.348 77.712 122.451 73.744 121.556 70.096C121.172 68.496 120.756 66.928 120.308 65.392H97.4595C95.4755 70.704 93.5555 76.24 91.6995 82H84.3075C86.6755 76.944 88.9155 71.824 91.0275 66.64C93.2035 61.392 95.2195 56.208 97.0755 51.088C98.9955 45.904 100.724 40.816 102.259 35.824C103.795 30.832 105.14 26.032 106.292 21.424H120.691ZM119.54 62.32C119.284 61.296 118.996 60.272 118.675 59.248C117.651 55.664 116.436 52.08 115.028 48.496C113.62 44.912 111.892 41.104 109.844 37.072C106.196 44.24 102.932 51.472 100.052 58.768C99.6035 59.92 99.1235 61.104 98.6115 62.32H119.54ZM159.579 20.656C163.867 20.656 167.643 21.584 170.907 23.44C174.171 25.296 176.891 27.728 179.067 30.736C181.307 33.68 183.003 37.008 184.155 40.72C185.307 44.368 185.883 48.048 185.883 51.76C185.883 55.472 185.307 59.184 184.155 62.896C183.003 66.608 181.307 69.968 179.067 72.976C176.891 75.92 174.171 78.32 170.907 80.176C167.643 82.032 163.867 82.96 159.579 82.96C155.355 82.96 151.579 82.032 148.251 80.176C144.987 78.256 142.235 75.824 139.995 72.88C137.819 69.872 136.155 66.512 135.003 62.8C133.851 59.088 133.275 55.408 133.275 51.76C133.275 48.112 133.851 44.432 135.003 40.72C136.155 37.008 137.851 33.68 140.091 30.736C142.331 27.728 145.083 25.296 148.347 23.44C151.611 21.584 155.355 20.656 159.579 20.656ZM163.515 78.544C165.307 78.288 166.747 77.296 167.835 75.568C168.923 73.84 169.723 71.664 170.235 69.04C170.811 66.416 171.099 63.472 171.099 60.208C171.099 56.88 170.843 53.552 170.331 50.224C169.883 46.832 169.243 43.568 168.411 40.432C167.579 37.296 166.555 34.544 165.339 32.176C164.187 29.744 162.875 27.856 161.403 26.512C159.995 25.104 158.459 24.528 156.795 24.784C154.875 25.04 153.307 26.064 152.091 27.856C150.875 29.584 149.947 31.76 149.307 34.384C148.731 37.008 148.411 39.984 148.347 43.312C148.347 46.576 148.571 49.872 149.019 53.2C149.467 56.528 150.139 59.792 151.035 62.992C151.931 66.128 152.987 68.88 154.203 71.248C155.483 73.616 156.891 75.504 158.427 76.912C160.027 78.256 161.723 78.8 163.515 78.544Z" fill="black"/>
</svg>
