<svg width="635" height="65" viewBox="0 0 635 65" fill="none" xmlns="http://www.w3.org/2000/svg">
<path d="M177.997 32.64C177.997 15.104 192.077 1.02399 209.613 1.02399C227.021 1.02399 241.229 15.104 241.229 32.64C241.229 50.048 227.021 64.256 209.613 64.256C192.077 64.256 177.997 50.048 177.997 32.64ZM196.301 31.104C196.301 45.568 201.933 63.36 210.509 63.36C218.701 63.36 223.181 47.36 223.181 34.176C223.181 19.584 217.933 2.04799 208.845 2.04799C200.781 2.04799 196.301 17.92 196.301 31.104Z" fill="white"/>
<path d="M116.943 64V63.488C121.295 61.952 127.311 56.32 129.743 50.048L148.687 0.511993L168.271 52.48C170.191 57.728 173.007 61.952 177.743 63.488V64H148.047V63.488C152.143 61.824 153.679 56.32 151.887 51.584L149.327 44.672H133.071L130.895 50.176C129.487 54.272 131.535 61.568 136.143 63.488V64H116.943ZM133.327 43.776H148.943L141.135 23.168L133.327 43.776Z" fill="white"/>
<path d="M51.5925 64V63.488C56.0725 59.904 57.2245 54.528 57.2245 48.256V17.024C57.2245 10.752 56.0725 5.376 51.5925 1.792V1.28H77.9605V1.792C73.4805 5.376 72.3285 10.752 72.3285 17.024V31.36H94.7285V17.024C94.7285 10.752 93.5765 5.376 89.0965 1.792V1.28H115.465V1.792C110.985 5.376 109.833 10.752 109.833 17.024V48.256C109.833 54.528 110.985 59.904 115.465 63.488V64H89.0965V63.488C93.5765 59.904 94.7285 54.528 94.7285 48.256V32.384H72.3285V48.256C72.3285 54.528 73.4805 59.904 77.9605 63.488V64H51.5925Z" fill="white"/>
<path d="M0.443481 11.52L2.61948 1.28H47.9315L50.1075 11.52H49.5955C43.4515 5.76 38.4595 2.944 32.8275 1.792V48.256C32.8275 54.528 33.9795 59.904 38.4595 63.488V64H12.0915V63.488C16.5715 59.904 17.7235 54.528 17.7235 48.256V1.792C12.0915 2.944 7.09948 5.76 0.955481 11.52H0.443481Z" fill="white"/>
<path d="M634.351 1.27997V1.79197C629.359 5.24797 625.647 11.776 625.647 22.4V64H623.215L585.071 10.112V42.88C585.071 53.504 588.911 59.904 593.775 63.488V64H575.343V63.488C580.335 60.032 584.047 53.504 584.047 42.88V16.896C584.047 6.39997 581.359 3.32796 575.343 1.79197V1.27997H597.103L624.623 37.504V22.4C624.623 11.776 620.783 5.37597 615.919 1.79197V1.27997H634.351Z" fill="white"/>
<path d="M568.425 64H527.593V63.488C532.073 59.904 533.225 54.528 533.225 48.256V15.872C533.225 10.24 531.945 3.96797 527.593 1.79197V1.27997H567.913L572.009 18.56H571.497C564.329 9.21597 553.449 2.43196 548.329 2.30397V31.616C550.249 31.616 556.777 31.616 560.105 22.912H560.617V41.344H560.105C556.777 32.64 550.249 32.64 548.329 32.64V62.976C553.449 62.848 564.457 56.96 572.393 46.592H572.777L568.425 64Z" fill="white"/>
<path d="M488.763 35.328L479.291 18.304C476.859 13.056 471.355 4.09597 464.443 1.79197V1.27997H494.651V1.79197C491.195 4.73597 492.859 11.904 495.675 16.896L503.611 31.872L512.187 13.952C515.003 8.06397 512.187 3.19997 509.627 1.79197V1.27997H526.011V1.79197C522.427 3.19997 517.563 5.37597 513.595 13.184L503.867 33.664V48.256C503.867 54.528 505.019 59.904 509.499 63.488V64H483.131V63.488C487.611 59.904 488.763 54.528 488.763 48.256V35.328Z" fill="white"/>
<path d="M398.968 1.79197V1.27997H425.336V1.79197C420.856 5.37597 419.704 10.752 419.704 17.024V38.144C419.704 50.688 421.88 62.464 435.192 62.464C446.2 62.464 453.24 55.424 453.24 38.784V22.4C453.24 11.776 449.528 5.24797 444.536 1.79197V1.27997H462.968V1.79197C458.104 5.37597 454.264 11.776 454.264 22.4V38.912C454.264 57.728 445.304 64.64 432.632 64.64C412.28 64.64 404.6 54.528 404.6 38.656V17.024C404.6 10.752 403.448 5.37597 398.968 1.79197Z" fill="white"/>
<path d="M366.37 64.256C348.706 64.256 334.498 50.432 334.498 32.64C334.498 14.848 350.114 1.02399 367.906 1.02399C374.562 1.02399 384.162 2.68798 389.41 7.03999V24.32H388.77C384.674 16.384 374.818 2.17599 366.114 2.17599C354.85 2.17599 350.37 18.176 350.37 31.36C350.37 45.696 354.21 62.976 367.394 62.976C373.922 62.976 374.434 58.496 374.434 50.944V48.256C374.434 42.112 373.282 36.736 368.93 33.152H368.802V32.512H395.17V33.152H395.042C390.69 36.736 389.538 42.112 389.538 48.256V64.512H388.898C385.698 62.976 383.138 62.336 380.706 62.336C376.098 62.336 372.002 64.256 366.37 64.256Z" fill="white"/>
<path d="M330.601 1.27997V1.79197C325.609 5.24797 321.897 11.776 321.897 22.4V64H319.465L281.321 10.112V42.88C281.321 53.504 285.161 59.904 290.025 63.488V64H271.593V63.488C276.585 60.032 280.297 53.504 280.297 42.88V16.896C280.297 6.39997 277.609 3.32796 271.593 1.79197V1.27997H293.353L320.873 37.504V22.4C320.873 11.776 317.033 5.37597 312.169 1.79197V1.27997H330.601Z" fill="white"/>
<path d="M217.32 32.52C215.96 33.87 214.63 35.22 213.32 36.58C211.967 37.9723 210.76 39.5004 209.72 41.14C208.61 39.5669 207.408 38.0609 206.12 36.63C204.818 35.1906 203.443 33.8188 202 32.52C204.913 30.0099 207.502 27.148 209.71 24C210.729 25.6125 211.901 27.1228 213.21 28.51C214.463 29.7967 215.833 31.1333 217.32 32.52Z" fill="white"/>
</svg>
